<svg width="89" height="31" viewBox="0 0 89 31" fill="none" xmlns="http://www.w3.org/2000/svg">
<rect x="0.832031" y="2" width="87.748" height="29" rx="3" fill="#DE6767"/>
<path d="M25.772 7.6H29.05L31.558 23H29.138L28.698 19.942V19.986H25.948L25.508 23H23.264L25.772 7.6ZM28.412 17.896L27.334 10.284H27.29L26.234 17.896H28.412ZM32.7321 7.6H36.4281C37.6307 7.6 38.5327 7.92267 39.1341 8.568C39.7354 9.21333 40.0361 10.1593 40.0361 11.406V19.194C40.0361 20.4407 39.7354 21.3867 39.1341 22.032C38.5327 22.6773 37.6307 23 36.4281 23H32.7321V7.6ZM36.3841 20.8C36.7801 20.8 37.0807 20.6827 37.2861 20.448C37.5061 20.2133 37.6161 19.832 37.6161 19.304V11.296C37.6161 10.768 37.5061 10.3867 37.2861 10.152C37.0807 9.91733 36.7801 9.8 36.3841 9.8H35.1521V20.8H36.3841ZM41.6696 7.6H45.1236L46.6636 18.622H46.7076L48.2476 7.6H51.7016V23H49.4136V11.34H49.3696L47.6096 23H45.5856L43.8256 11.34H43.7816V23H41.6696V7.6ZM53.5075 7.6H55.9275V23H53.5075V7.6ZM57.7399 7.6H60.7759L63.1299 16.818H63.1739V7.6H65.3299V23H62.8439L59.9399 11.758H59.8959V23H57.7399V7.6Z" fill="black"/>
</svg>
