<svg width="126" height="31" viewBox="0 0 126 31" fill="none" xmlns="http://www.w3.org/2000/svg">
<rect x="0.832031" y="2" width="125.168" height="29" rx="3" fill="#DE6767"/>
<path d="M45.772 7.6H49.05L51.558 23H49.138L48.698 19.942V19.986H45.948L45.508 23H43.264L45.772 7.6ZM48.412 17.896L47.334 10.284H47.29L46.234 17.896H48.412ZM52.7321 7.6H56.4281C57.6307 7.6 58.5327 7.92267 59.1341 8.568C59.7354 9.21333 60.0361 10.1593 60.0361 11.406V19.194C60.0361 20.4407 59.7354 21.3867 59.1341 22.032C58.5327 22.6773 57.6307 23 56.4281 23H52.7321V7.6ZM56.3841 20.8C56.7801 20.8 57.0807 20.6827 57.2861 20.448C57.5061 20.2133 57.6161 19.832 57.6161 19.304V11.296C57.6161 10.768 57.5061 10.3867 57.2861 10.152C57.0807 9.91733 56.7801 9.8 56.3841 9.8H55.1521V20.8H56.3841ZM61.6696 7.6H65.1236L66.6636 18.622H66.7076L68.2476 7.6H71.7016V23H69.4136V11.34H69.3696L67.6096 23H65.5856L63.8256 11.34H63.7816V23H61.6696V7.6ZM73.5075 7.6H75.9275V23H73.5075V7.6ZM77.7399 7.6H80.7759L83.1299 16.818H83.1739V7.6H85.3299V23H82.8439L79.9399 11.758H79.8959V23H77.7399V7.6Z" fill="black"/>
</svg>
