<svg width="133" height="30" viewBox="0 0 133 30" fill="none" xmlns="http://www.w3.org/2000/svg">
<rect x="0.832031" y="1" width="132.126" height="29" rx="3" fill="#597ACE" fill-opacity="0.32"/>
<path d="M24.902 7.6H28.554C29.8007 7.6 30.71 7.89333 31.282 8.48C31.854 9.052 32.14 9.93933 32.14 11.142V11.758C32.14 12.55 32.008 13.1953 31.744 13.694C31.4947 14.1927 31.106 14.552 30.578 14.772V14.816C31.7807 15.2267 32.382 16.2973 32.382 18.028V19.348C32.382 20.536 32.0667 21.4453 31.436 22.076C30.82 22.692 29.9107 23 28.708 23H24.902V7.6ZM28.268 13.87C28.752 13.87 29.1113 13.7453 29.346 13.496C29.5953 13.2467 29.72 12.8287 29.72 12.242V11.384C29.72 10.8267 29.6173 10.4233 29.412 10.174C29.2213 9.92467 28.9133 9.8 28.488 9.8H27.322V13.87H28.268ZM28.708 20.8C29.1333 20.8 29.4487 20.69 29.654 20.47C29.8593 20.2353 29.962 19.8393 29.962 19.282V17.94C29.962 17.236 29.8373 16.752 29.588 16.488C29.3533 16.2093 28.9573 16.07 28.4 16.07H27.322V20.8H28.708ZM33.7965 7.6H40.3965V9.8H36.2165V13.87H39.5385V16.07H36.2165V20.8H40.3965V23H33.7965V7.6ZM41.7887 7.6H44.8247L47.1787 16.818H47.2227V7.6H49.3787V23H46.8927L43.9887 11.758H43.9447V23H41.7887V7.6ZM51.1774 7.6H57.7774V9.8H53.5974V13.87H56.9194V16.07H53.5974V20.8H57.7774V23H51.1774V7.6ZM59.1696 7.6H65.5716V9.8H61.5896V14.09H64.7136V16.29H61.5896V23H59.1696V7.6ZM66.7321 7.6H69.1521V23H66.7321V7.6ZM74.3745 23.22C73.2158 23.22 72.3285 22.89 71.7125 22.23C71.1112 21.57 70.8105 20.6387 70.8105 19.436V11.164C70.8105 9.96133 71.1112 9.03 71.7125 8.37C72.3285 7.71 73.2158 7.38 74.3745 7.38C75.5332 7.38 76.4132 7.71 77.0145 8.37C77.6305 9.03 77.9385 9.96133 77.9385 11.164V12.792H75.6505V11.01C75.6505 10.0567 75.2472 9.58 74.4405 9.58C73.6338 9.58 73.2305 10.0567 73.2305 11.01V19.612C73.2305 20.5507 73.6338 21.02 74.4405 21.02C75.2472 21.02 75.6505 20.5507 75.6505 19.612V17.258H77.9385V19.436C77.9385 20.6387 77.6305 21.57 77.0145 22.23C76.4132 22.89 75.5332 23.22 74.3745 23.22ZM79.3864 7.6H81.8064V23H79.3864V7.6ZM85.4888 7.6H88.7668L91.2748 23H88.8548L88.4148 19.942V19.986H85.6648L85.2248 23H82.9808L85.4888 7.6ZM88.1288 17.896L87.0508 10.284H87.0068L85.9508 17.896H88.1288ZM92.4489 7.6H96.0349C97.2815 7.6 98.1909 7.89333 98.7629 8.48C99.3349 9.052 99.6209 9.93933 99.6209 11.142V12.088C99.6209 13.6867 99.0929 14.6987 98.0369 15.124V15.168C98.6235 15.344 99.0342 15.7033 99.2689 16.246C99.5182 16.7887 99.6429 17.5147 99.6429 18.424V21.13C99.6429 21.57 99.6575 21.9293 99.6869 22.208C99.7162 22.472 99.7895 22.736 99.9069 23H97.4429C97.3549 22.7507 97.2962 22.516 97.2669 22.296C97.2375 22.076 97.2229 21.68 97.2229 21.108V18.292C97.2229 17.588 97.1055 17.0967 96.8709 16.818C96.6509 16.5393 96.2622 16.4 95.7049 16.4H94.8689V23H92.4489V7.6ZM95.7489 14.2C96.2329 14.2 96.5922 14.0753 96.8269 13.826C97.0762 13.5767 97.2009 13.1587 97.2009 12.572V11.384C97.2009 10.8267 97.0982 10.4233 96.8929 10.174C96.7022 9.92467 96.3942 9.8 95.9689 9.8H94.8689V14.2H95.7489ZM103.2 16.444L100.274 7.6H102.848L104.498 13.254H104.542L106.192 7.6H108.546L105.62 16.444V23H103.2V16.444Z" fill="black"/>
</svg>
