<svg width="133" height="30" viewBox="0 0 133 30" fill="none" xmlns="http://www.w3.org/2000/svg">
<rect x="0.832031" y="1" width="132.126" height="29" rx="3" fill="#025E86" fill-opacity="0.32"/>
<path d="M20.902 7.6H24.488C25.7347 7.6 26.644 7.89333 27.216 8.48C27.788 9.052 28.074 9.93933 28.074 11.142V12.088C28.074 13.6867 27.546 14.6987 26.49 15.124V15.168C27.0767 15.344 27.4873 15.7033 27.722 16.246C27.9713 16.7887 28.096 17.5147 28.096 18.424V21.13C28.096 21.57 28.1107 21.9293 28.14 22.208C28.1693 22.472 28.2427 22.736 28.36 23H25.896C25.808 22.7507 25.7493 22.516 25.72 22.296C25.6907 22.076 25.676 21.68 25.676 21.108V18.292C25.676 17.588 25.5587 17.0967 25.324 16.818C25.104 16.5393 24.7153 16.4 24.158 16.4H23.322V23H20.902V7.6ZM24.202 14.2C24.686 14.2 25.0453 14.0753 25.28 13.826C25.5293 13.5767 25.654 13.1587 25.654 12.572V11.384C25.654 10.8267 25.5513 10.4233 25.346 10.174C25.1553 9.92467 24.8473 9.8 24.422 9.8H23.322V14.2H24.202ZM29.775 7.6H36.375V9.8H32.195V13.87H35.517V16.07H32.195V20.8H36.375V23H29.775V7.6ZM40.9562 23.22C39.7829 23.22 38.8955 22.89 38.2942 22.23C37.6929 21.5553 37.3922 20.5947 37.3922 19.348V18.468H39.6802V19.524C39.6802 20.5213 40.0982 21.02 40.9342 21.02C41.3449 21.02 41.6529 20.9027 41.8582 20.668C42.0782 20.4187 42.1882 20.0227 42.1882 19.48C42.1882 18.8347 42.0415 18.27 41.7482 17.786C41.4549 17.2873 40.9122 16.6933 40.1202 16.004C39.1229 15.124 38.4262 14.332 38.0302 13.628C37.6342 12.9093 37.4362 12.1027 37.4362 11.208C37.4362 9.99067 37.7442 9.052 38.3602 8.392C38.9762 7.71733 39.8709 7.38 41.0442 7.38C42.2029 7.38 43.0755 7.71733 43.6622 8.392C44.2635 9.052 44.5642 10.0053 44.5642 11.252V11.89H42.2762V11.098C42.2762 10.57 42.1735 10.1887 41.9682 9.954C41.7629 9.70467 41.4622 9.58 41.0662 9.58C40.2595 9.58 39.8562 10.0713 39.8562 11.054C39.8562 11.6113 40.0029 12.132 40.2962 12.616C40.6042 13.1 41.1542 13.6867 41.9462 14.376C42.9582 15.256 43.6549 16.0553 44.0362 16.774C44.4175 17.4927 44.6082 18.336 44.6082 19.304C44.6082 20.5653 44.2929 21.5333 43.6622 22.208C43.0462 22.8827 42.1442 23.22 40.9562 23.22ZM45.9958 7.6H49.5598C50.7624 7.6 51.6644 7.92267 52.2658 8.568C52.8671 9.21333 53.1678 10.1593 53.1678 11.406V12.924C53.1678 14.1707 52.8671 15.1167 52.2658 15.762C51.6644 16.4073 50.7624 16.73 49.5598 16.73H48.4158V23H45.9958V7.6ZM49.5598 14.53C49.9558 14.53 50.2491 14.42 50.4398 14.2C50.6451 13.98 50.7477 13.606 50.7477 13.078V11.252C50.7477 10.724 50.6451 10.35 50.4398 10.13C50.2491 9.91 49.9558 9.8 49.5598 9.8H48.4158V14.53H49.5598ZM57.9801 23.22C56.7921 23.22 55.8827 22.8827 55.2521 22.208C54.6214 21.5333 54.3061 20.58 54.3061 19.348V11.252C54.3061 10.02 54.6214 9.06667 55.2521 8.392C55.8827 7.71733 56.7921 7.38 57.9801 7.38C59.1681 7.38 60.0774 7.71733 60.7081 8.392C61.3387 9.06667 61.6541 10.02 61.6541 11.252V19.348C61.6541 20.58 61.3387 21.5333 60.7081 22.208C60.0774 22.8827 59.1681 23.22 57.9801 23.22ZM57.9801 21.02C58.8161 21.02 59.2341 20.514 59.2341 19.502V11.098C59.2341 10.086 58.8161 9.58 57.9801 9.58C57.1441 9.58 56.7261 10.086 56.7261 11.098V19.502C56.7261 20.514 57.1441 21.02 57.9801 21.02ZM63.2907 7.6H66.3267L68.6807 16.818H68.7247V7.6H70.8807V23H68.3947L65.4907 11.758H65.4467V23H63.2907V7.6ZM75.8253 23.22C74.652 23.22 73.7647 22.89 73.1633 22.23C72.562 21.5553 72.2613 20.5947 72.2613 19.348V18.468H74.5493V19.524C74.5493 20.5213 74.9673 21.02 75.8033 21.02C76.214 21.02 76.522 20.9027 76.7273 20.668C76.9473 20.4187 77.0573 20.0227 77.0573 19.48C77.0573 18.8347 76.9107 18.27 76.6173 17.786C76.324 17.2873 75.7813 16.6933 74.9893 16.004C73.992 15.124 73.2953 14.332 72.8993 13.628C72.5033 12.9093 72.3053 12.1027 72.3053 11.208C72.3053 9.99067 72.6133 9.052 73.2293 8.392C73.8453 7.71733 74.74 7.38 75.9133 7.38C77.072 7.38 77.9447 7.71733 78.5313 8.392C79.1327 9.052 79.4333 10.0053 79.4333 11.252V11.89H77.1453V11.098C77.1453 10.57 77.0427 10.1887 76.8373 9.954C76.632 9.70467 76.3313 9.58 75.9353 9.58C75.1287 9.58 74.7253 10.0713 74.7253 11.054C74.7253 11.6113 74.872 12.132 75.1653 12.616C75.4733 13.1 76.0233 13.6867 76.8153 14.376C77.8273 15.256 78.524 16.0553 78.9053 16.774C79.2867 17.4927 79.4773 18.336 79.4773 19.304C79.4773 20.5653 79.162 21.5333 78.5313 22.208C77.9153 22.8827 77.0133 23.22 75.8253 23.22ZM82.6704 7.6H85.9484L88.4564 23H86.0364L85.5964 19.942V19.986H82.8464L82.4064 23H80.1624L82.6704 7.6ZM85.3104 17.896L84.2324 10.284H84.1884L83.1324 17.896H85.3104ZM89.6305 7.6H93.2825C94.5292 7.6 95.4385 7.89333 96.0105 8.48C96.5825 9.052 96.8685 9.93933 96.8685 11.142V11.758C96.8685 12.55 96.7365 13.1953 96.4725 13.694C96.2232 14.1927 95.8345 14.552 95.3065 14.772V14.816C96.5092 15.2267 97.1105 16.2973 97.1105 18.028V19.348C97.1105 20.536 96.7952 21.4453 96.1645 22.076C95.5485 22.692 94.6392 23 93.4365 23H89.6305V7.6ZM92.9965 13.87C93.4805 13.87 93.8398 13.7453 94.0745 13.496C94.3238 13.2467 94.4485 12.8287 94.4485 12.242V11.384C94.4485 10.8267 94.3458 10.4233 94.1405 10.174C93.9498 9.92467 93.6418 9.8 93.2165 9.8H92.0505V13.87H92.9965ZM93.4365 20.8C93.8618 20.8 94.1772 20.69 94.3825 20.47C94.5878 20.2353 94.6905 19.8393 94.6905 19.282V17.94C94.6905 17.236 94.5658 16.752 94.3165 16.488C94.0818 16.2093 93.6858 16.07 93.1285 16.07H92.0505V20.8H93.4365ZM98.525 7.6H100.945V20.8H104.927V23H98.525V7.6ZM106.088 7.6H112.688V9.8H108.508V13.87H111.83V16.07H108.508V20.8H112.688V23H106.088V7.6Z" fill="black"/>
</svg>
