<svg width="133" height="29" viewBox="0 0 133 29" fill="none" xmlns="http://www.w3.org/2000/svg">
<rect x="0.832031" width="132.126" height="29" rx="3" fill="#00C2FF" fill-opacity="0.39"/>
<path d="M28.264 7.6H30.706L32.29 19.546H32.334L33.918 7.6H36.14L33.808 23H30.596L28.264 7.6ZM40.7574 23.22C39.5694 23.22 38.6601 22.8827 38.0294 22.208C37.3988 21.5333 37.0834 20.58 37.0834 19.348V11.252C37.0834 10.02 37.3988 9.06667 38.0294 8.392C38.6601 7.71733 39.5694 7.38 40.7574 7.38C41.9454 7.38 42.8548 7.71733 43.4854 8.392C44.1161 9.06667 44.4314 10.02 44.4314 11.252V19.348C44.4314 20.58 44.1161 21.5333 43.4854 22.208C42.8548 22.8827 41.9454 23.22 40.7574 23.22ZM40.7574 21.02C41.5934 21.02 42.0114 20.514 42.0114 19.502V11.098C42.0114 10.086 41.5934 9.58 40.7574 9.58C39.9214 9.58 39.5034 10.086 39.5034 11.098V19.502C39.5034 20.514 39.9214 21.02 40.7574 21.02ZM46.068 7.6H48.488V20.8H52.47V23H46.068V7.6ZM57.1505 23.22C55.9772 23.22 55.0825 22.89 54.4665 22.23C53.8505 21.5553 53.5425 20.5947 53.5425 19.348V7.6H55.9625V19.524C55.9625 20.052 56.0652 20.4333 56.2705 20.668C56.4905 20.9027 56.7985 21.02 57.1945 21.02C57.5905 21.02 57.8912 20.9027 58.0965 20.668C58.3165 20.4333 58.4265 20.052 58.4265 19.524V7.6H60.7585V19.348C60.7585 20.5947 60.4505 21.5553 59.8345 22.23C59.2185 22.89 58.3238 23.22 57.1505 23.22ZM62.4821 7.6H65.5181L67.8721 16.818H67.9161V7.6H70.0721V23H67.5861L64.6821 11.758H64.6381V23H62.4821V7.6ZM73.7628 9.8H71.2328V7.6H78.7128V9.8H76.1828V23H73.7628V9.8ZM79.8844 7.6H86.4844V9.8H82.3044V13.87H85.6264V16.07H82.3044V20.8H86.4844V23H79.8844V7.6ZM87.8766 7.6H94.4766V9.8H90.2966V13.87H93.6186V16.07H90.2966V20.8H94.4766V23H87.8766V7.6ZM95.8688 7.6H99.4548C100.701 7.6 101.611 7.89333 102.183 8.48C102.755 9.052 103.041 9.93933 103.041 11.142V12.088C103.041 13.6867 102.513 14.6987 101.457 15.124V15.168C102.043 15.344 102.454 15.7033 102.689 16.246C102.938 16.7887 103.063 17.5147 103.063 18.424V21.13C103.063 21.57 103.077 21.9293 103.107 22.208C103.136 22.472 103.209 22.736 103.327 23H100.863C100.775 22.7507 100.716 22.516 100.687 22.296C100.657 22.076 100.643 21.68 100.643 21.108V18.292C100.643 17.588 100.525 17.0967 100.291 16.818C100.071 16.5393 99.6821 16.4 99.1248 16.4H98.2888V23H95.8688V7.6ZM99.1688 14.2C99.6528 14.2 100.012 14.0753 100.247 13.826C100.496 13.5767 100.621 13.1587 100.621 12.572V11.384C100.621 10.8267 100.518 10.4233 100.313 10.174C100.122 9.92467 99.8141 9.8 99.3888 9.8H98.2888V14.2H99.1688Z" fill="black"/>
</svg>
